<?xml version="1.0" encoding="UTF-8" standalone="no"?>
<!-- Created with Inkscape (http://www.inkscape.org/) -->

<svg
   width="175.32143mm"
   height="156.83067mm"
   viewBox="0 0 175.32143 156.83067"
   version="1.1"
   id="svg1320"
   inkscape:version="1.1.1 (3bf5ae0d25, 2021-09-20)"
   sodipodi:docname="Cinnabun.svg"
   xmlns:inkscape="http://www.inkscape.org/namespaces/inkscape"
   xmlns:sodipodi="http://sodipodi.sourceforge.net/DTD/sodipodi-0.dtd"
   xmlns="http://www.w3.org/2000/svg"
   xmlns:svg="http://www.w3.org/2000/svg">
  <sodipodi:namedview
     id="namedview1322"
     pagecolor="#ffffff"
     bordercolor="#666666"
     borderopacity="1.0"
     inkscape:pageshadow="2"
     inkscape:pageopacity="0.0"
     inkscape:pagecheckerboard="0"
     inkscape:document-units="mm"
     showgrid="false"
     inkscape:zoom="0.5499273"
     inkscape:cx="-167.29484"
     inkscape:cy="293.67518"
     inkscape:window-width="2560"
     inkscape:window-height="1369"
     inkscape:window-x="1072"
     inkscape:window-y="282"
     inkscape:window-maximized="1"
     inkscape:current-layer="layer2" />
  <defs
     id="defs1317" />
  <g
     inkscape:label="Layer 1"
     inkscape:groupmode="layer"
     id="layer1"
     style="display:inline"
     transform="translate(-14.923556,-69.746626)">
    <ellipse
       style="opacity:1;fill:#b8b8ba;fill-opacity:1;stroke:none;stroke-width:2.96333;stroke-linecap:round;stroke-linejoin:round;stroke-miterlimit:4;stroke-dasharray:none;stroke-opacity:1;paint-order:fill markers stroke"
       id="path145900"
       cx="101.89175"
       cy="217.05153"
       rx="61.747421"
       ry="9.525773" />
    <path
       style="opacity:1;fill:#f9f1e5;fill-opacity:1;stroke:#000000;stroke-width:0.264583px;stroke-linecap:butt;stroke-linejoin:miter;stroke-opacity:1"
       d="m 106.56901,201.35048 c -16.117661,-0.24057 -44.022865,-3.849 -54.126472,-12.50923 -10.103609,-8.66024 -16.358224,-9.86305 -18.523283,-40.17387 -2.165059,-30.31083 4.089556,-53.645351 6.735738,-57.975469 2.646186,-4.330118 24.296772,-20.447778 64.470647,-20.447778 40.17387,0 62.79025,16.664244 66.27663,32.869457 3.48637,16.20521 6.61368,60.7092 -4.9333,74.90236 -11.54698,14.19317 -32.47588,24.53734 -59.89996,23.33453 z"
       id="path81784" />
    <path
       style="opacity:1;fill:#dbb693;fill-opacity:1;stroke:none;stroke-width:0.264583px;stroke-linecap:butt;stroke-linejoin:miter;stroke-opacity:1"
       d="m 152.99749,129.90353 c 9.38193,21.41003 8.17912,54.12647 -39.45218,57.73491 -47.631295,3.60843 -74.093126,-7.45743 -79.866617,-50.27748 0.481126,25.01846 0.481124,39.93331 15.877098,50.51804 15.395974,10.58473 42.098367,13.9526 57.013219,13.47148 14.91485,-0.48113 43.94705,2.6206 63.74895,-27.66465 8.17912,-12.50923 3.4944,-37.94296 1.08431,-70.57224 -0.48559,11.87471 -9.74454,19.81364 -18.40478,26.78994 z"
       id="path85712"
       sodipodi:nodetypes="cscssscc" />
    <path
       style="opacity:1;fill:none;fill-opacity:1;stroke:#000000;stroke-width:5.37104;stroke-linecap:round;stroke-linejoin:miter;stroke-miterlimit:4;stroke-dasharray:none;stroke-opacity:1"
       d="m 25.997514,175.61033 c -1.683935,2.76647 -2.653299,5.09128 -1.202811,7.75813"
       id="path49869-4"
       sodipodi:nodetypes="cc" />
    <path
       style="fill:#dbb693;fill-opacity:1;stroke:none;stroke-width:0.264583px;stroke-linecap:butt;stroke-linejoin:miter;stroke-opacity:1"
       d="m 37.144385,105.14081 c 0.941608,16.7049 25.522043,34.98661 66.537875,35.22717 42.59931,0.24984 57.25201,-7.00903 67.59795,-27.78492 -17.90785,24.48448 -54.28956,25.58142 -69.04132,24.17649 C 59.298556,132.67 43.256257,116.22184 37.144385,105.14081 Z"
       id="path155884"
       sodipodi:nodetypes="cscsc" />
    <path
       style="opacity:1;fill:#efaf7c;fill-opacity:1;stroke:#000000;stroke-width:3.33428;stroke-linecap:butt;stroke-linejoin:miter;stroke-miterlimit:4;stroke-dasharray:none;stroke-opacity:1"
       d="m 37.951846,98.659793 c 0.409706,-16.677944 31.683015,-27.897116 69.213104,-27.216495 44.90643,0.814394 64.07282,20.067799 64.29896,33.000002 0.17836,10.19992 -9.52597,20.07305 -18.71133,25.17526 -9.40276,5.22297 -32.02288,7.68015 -48.30928,7.14433 C 89.34684,136.26622 73.049359,134.86355 60.216494,126.89691 49.939465,120.51693 37.542139,115.33774 37.951846,98.659793 Z"
       id="path1426"
       sodipodi:nodetypes="zsssssz" />
    <path
       style="opacity:1;fill:#fcd8cb;fill-opacity:1;stroke:none;stroke-width:0.264583px;stroke-linecap:butt;stroke-linejoin:miter;stroke-opacity:1"
       d="m 122.13402,85.902061 c 23.47423,3.061856 26.70619,12.417525 25.17526,18.711349 C 133.62996,92.083232 123.35755,91.340171 114.85879,92.096232 92.761867,94.062002 92.393393,98.663638 93.982994,106.97952 79.37092,94.995061 101.68362,84.642651 122.13402,85.902061 Z"
       id="path138283"
       sodipodi:nodetypes="ccscc" />
    <path
       style="opacity:1;fill:#fbd9cd;fill-opacity:1;stroke:none;stroke-width:0.264583px;stroke-linecap:butt;stroke-linejoin:miter;stroke-opacity:1"
       d="M 65.319586,84.71134 C 52.051545,86.412371 44.963837,95.085269 44.907215,99.680412 44.844304,104.78595 50.520618,120.43299 74.675256,120.26288 59.195875,112.77835 51.541236,108.18556 52.051545,99.680412 52.656844,89.592083 61.57732,90.154637 61.57732,90.154637 Z"
       id="path112641"
       sodipodi:nodetypes="cscscc" />
    <path
       style="opacity:1;fill:#8b4023;fill-opacity:1;stroke:none;stroke-width:0.264583px;stroke-linecap:butt;stroke-linejoin:miter;stroke-opacity:1"
       d="m 61.471284,90.420258 c -15.625326,3.841874 -14.522629,28.470482 38.993986,32.922402 51.64499,4.37879 60.62814,-16.09922 47.02238,-27.794836 5.26432,12.990366 -11.98283,23.604936 -29.82871,23.173806 C 91.505317,118.0898 53.460355,114.62642 61.471284,90.420258"
       id="path98836"
       sodipodi:nodetypes="cccsc" />
    <path
       style="fill:#8b4023;fill-opacity:1;stroke:none;stroke-width:0.264583px;stroke-linecap:butt;stroke-linejoin:miter;stroke-opacity:1"
       d="m 106.05928,100.70103 c 0.85051,1.87113 3.65721,2.8067 5.52835,2.04124 1.87113,-0.76547 5.15187,-3.27989 3.63908,-4.23402 -1.51279,-0.954127 -9.50764,-0.784024 -9.16743,2.19278 z"
       id="path147926" />
    <path
       style="opacity:1;fill:#893c21;fill-opacity:1;stroke:none;stroke-width:0.264583px;stroke-linecap:butt;stroke-linejoin:miter;stroke-opacity:1"
       d="m 109.71649,86.582474 c -17.010306,0 -31.809275,3.572163 -31.639172,11.056699 0.170104,7.484537 15.989692,11.567007 20.752578,12.077317 -6.634023,-4.08247 -10.376287,-7.65464 -9.525773,-11.907214 1.308287,-6.541444 13.097937,-10.631442 20.412367,-11.226802 z"
       id="path104957"
       sodipodi:nodetypes="cscsc" />
    <path
       style="opacity:1;fill:none;fill-opacity:1;stroke:#000000;stroke-width:2.56646;stroke-linecap:round;stroke-linejoin:miter;stroke-miterlimit:4;stroke-dasharray:none;stroke-opacity:1"
       d="m 115.22671,98.508252 c -0.93954,6.046778 -9.42259,5.254638 -9.42259,1.852568 0,-3.402057 9.86598,-2.721647 13.94846,-2.38144 4.08247,0.340206 13.94845,2.38144 13.94845,7.48454 0,5.10309 -11.90722,6.80412 -23.81443,6.12371 -11.90722,-0.68042 -32.319591,-4.76289 -31.639178,-14.628867 0.680413,-9.865979 23.134018,-10.886599 38.103088,-10.886599 14.96908,0 36.64263,6.182081 37.32304,18.089296 0.68041,11.90722 -9.51118,20.5241 -46.5086,19.33338 -33.366297,-1.07386 -55.239836,-10.85559 -54.773199,-24.154634 0.170105,-4.847939 4.082476,-9.185569 9.185569,-9.185569"
       id="path3080"
       sodipodi:nodetypes="csssssssssc" />
    <path
       style="opacity:1;fill:#fed8c9;fill-opacity:1;stroke:none;stroke-width:0.264583px;stroke-linecap:butt;stroke-linejoin:miter;stroke-opacity:1"
       d="m 67.871133,95.938143 c 1.871133,-7.824742 8.84536,-13.26804 32.149487,-22.623712 -7.484534,0.850517 -35.806704,3.231961 -38.698457,20.752579 -2.89175,17.52062 15.734538,18.54123 21.943301,21.09278 C 69.742268,106.82474 66.850516,102.40206 67.871133,95.938143 Z"
       id="path134082"
       sodipodi:nodetypes="ccscc" />
    <path
       style="opacity:1;fill:none;stroke:#000000;stroke-width:2.64583;stroke-linecap:round;stroke-linejoin:miter;stroke-miterlimit:4;stroke-dasharray:none;stroke-opacity:1"
       d="M 112.52319,71.528349 C 90.23969,73.059278 62.17268,79.268041 60.726803,94.832473 59.280927,110.3969 75.100515,112.26804 83.265464,115.15979"
       id="path13625" />
    <path
       style="opacity:1;fill:none;stroke:#000000;stroke-width:2.16958;stroke-linecap:round;stroke-linejoin:miter;stroke-miterlimit:4;stroke-dasharray:none;stroke-opacity:1"
       d="m 117.03093,85.987114 c -10.8866,0.510307 -26.961343,3.827319 -27.641756,12.077319 -0.680413,8.249997 7.569589,12.417527 26.451026,13.523197"
       id="path20627" />
    <path
       style="opacity:1;fill:none;stroke:#000000;stroke-width:3.33375;stroke-linecap:round;stroke-linejoin:miter;stroke-miterlimit:4;stroke-dasharray:none;stroke-opacity:1"
       d="m 37.951846,98.659793 c -4.994838,32.687117 -9.513592,69.872587 9.679451,86.573027 18.523279,16.11766 48.112417,16.35822 55.569843,16.35822 7.45742,0 45.11481,-0.0959 61.10277,-19.96666 16.83935,-20.9289 8.65139,-41.08524 7.09836,-78.51079"
       id="path22924"
       sodipodi:nodetypes="csssc" />
    <path
       style="opacity:1;fill:none;stroke:#000000;stroke-width:4.7625;stroke-linecap:round;stroke-linejoin:miter;stroke-miterlimit:4;stroke-dasharray:none;stroke-opacity:1"
       d="m 33.546314,128.27973 c -13.712039,18.76385 -11.366558,37.46756 -9.442061,47.3306"
       id="path42485"
       sodipodi:nodetypes="cc" />
    <path
       style="opacity:1;fill:none;fill-opacity:1;stroke:#000000;stroke-width:5.37104;stroke-linecap:round;stroke-linejoin:miter;stroke-miterlimit:4;stroke-dasharray:none;stroke-opacity:1"
       d="m 24.104253,175.61033 c -4.811242,0.48113 -6.495177,2.76647 -6.495177,2.76647"
       id="path49869"
       sodipodi:nodetypes="cc" />
    <path
       style="opacity:1;fill:none;fill-opacity:1;stroke:#000000;stroke-width:5.37104;stroke-linecap:round;stroke-linejoin:miter;stroke-miterlimit:4;stroke-dasharray:none;stroke-opacity:1"
       d="m 24.104253,175.61033 c 4.931523,1e-5 8.539955,2.64618 8.539955,2.64618"
       id="path49869-8"
       sodipodi:nodetypes="cc" />
    <path
       style="opacity:1;fill:none;fill-opacity:1;stroke:#000000;stroke-width:5.37104;stroke-linecap:round;stroke-linejoin:miter;stroke-miterlimit:4;stroke-dasharray:none;stroke-opacity:1"
       d="m 182.46635,176.93342 c -0.37945,3.21637 -1.04929,5.64448 -3.83537,6.85021"
       id="path49869-4-9"
       sodipodi:nodetypes="cc" />
    <path
       style="opacity:1;fill:none;fill-opacity:1;stroke:#000000;stroke-width:5.37104;stroke-linecap:round;stroke-linejoin:miter;stroke-miterlimit:4;stroke-dasharray:none;stroke-opacity:1"
       d="m 182.46635,176.93342 c -4.08495,-2.58702 -6.81967,-1.8256 -6.81967,-1.8256"
       id="path49869-42"
       sodipodi:nodetypes="cc" />
    <path
       style="opacity:1;fill:none;fill-opacity:1;stroke:#000000;stroke-width:5.37104;stroke-linecap:round;stroke-linejoin:miter;stroke-miterlimit:4;stroke-dasharray:none;stroke-opacity:1"
       d="m 182.46635,176.93342 c 3.88306,3.04002 5.09312,7.34801 5.09312,7.34801"
       id="path49869-8-3"
       sodipodi:nodetypes="cc" />
    <path
       style="opacity:1;fill:none;stroke:#000000;stroke-width:4.7625;stroke-linecap:round;stroke-linejoin:miter;stroke-miterlimit:4;stroke-dasharray:none;stroke-opacity:1"
       d="m 173.9264,129.06157 c 5.89377,8.17911 15.75681,23.69536 8.53995,47.87185"
       id="path64158" />
    <path
       style="opacity:1;fill:#07ff00;fill-opacity:1;stroke:#000000;stroke-width:4.7625;stroke-linecap:round;stroke-linejoin:miter;stroke-miterlimit:4;stroke-dasharray:none;stroke-opacity:1"
       d="m 70.003571,198.43954 c -1.082529,4.57068 -0.96225,10.58473 -0.841967,14.07288"
       id="path69487" />
    <path
       style="opacity:1;fill:#07ff00;fill-opacity:1;stroke:#000000;stroke-width:4.7625;stroke-linecap:round;stroke-linejoin:miter;stroke-miterlimit:4;stroke-dasharray:none;stroke-opacity:1"
       d="m 137.0179,198.64416 c 1.08253,4.57068 0.96225,10.58473 0.84197,14.07288"
       id="path69487-8" />
    <path
       style="opacity:1;fill:#dbb693;fill-opacity:1;stroke:#000000;stroke-width:2.96333;stroke-linecap:butt;stroke-linejoin:miter;stroke-miterlimit:4;stroke-dasharray:none;stroke-opacity:1"
       d="m 71.278619,215.30308 c -2.646182,-2.79066 -5.172963,-2.5812 -7.577706,-2.64619 -4.450399,-0.12028 -9.185393,2.39913 -9.141359,3.36787 0.120282,2.64618 3.727726,1.99995 8.179112,1.9245 7.09658,-0.12028 8.900795,0.84197 8.539953,-2.64618 z"
       id="path75019"
       sodipodi:nodetypes="csssc" />
    <path
       style="opacity:1;fill:#dbb693;fill-opacity:1;stroke:#000000;stroke-width:2.96333;stroke-linecap:butt;stroke-linejoin:miter;stroke-miterlimit:4;stroke-dasharray:none;stroke-opacity:1"
       d="m 136.24402,215.36105 c 2.64619,-2.79066 5.17297,-2.5812 7.57771,-2.64619 4.4504,-0.12028 9.18539,2.39913 9.14136,3.36787 -0.12028,2.64618 -3.72773,1.99995 -8.17911,1.9245 -7.09658,-0.12028 -8.9008,0.84197 -8.53996,-2.64618 z"
       id="path75019-0"
       sodipodi:nodetypes="csssc" />
  </g>
  <g
     inkscape:groupmode="layer"
     id="layer2"
     inkscape:label="Face 1 ( Joy )"
     style="display:none"
     transform="translate(-14.923556,-69.746626)">
    <g
       id="g165101"
       style="display:inline">
      <path
         style="opacity:1;fill:none;stroke:#000000;stroke-width:2.8575;stroke-linecap:round;stroke-linejoin:miter;stroke-miterlimit:4;stroke-dasharray:none;stroke-opacity:1"
         d="m 80.949145,150.23103 c 0.841968,-3.72872 3.608433,-6.49518 7.216863,-6.61546 3.608432,-0.12028 7.216865,3.00703 9.381923,5.89377"
         id="path29503"
         sodipodi:nodetypes="csc" />
      <path
         style="opacity:1;fill:none;stroke:#000000;stroke-width:2.8575;stroke-linecap:round;stroke-linejoin:miter;stroke-miterlimit:4;stroke-dasharray:none;stroke-opacity:1"
         d="m 110.77885,150.41334 c 0.84196,-3.72872 4.33012,-6.25462 7.93855,-6.3749 3.60844,-0.12028 5.77349,2.76647 7.93855,5.65321"
         id="path29503-0"
         sodipodi:nodetypes="csc" />
      <path
         style="opacity:1;fill:#000000;fill-opacity:1;stroke:none;stroke-width:0.264583px;stroke-linecap:butt;stroke-linejoin:miter;stroke-opacity:1"
         d="m 96.585682,158.41014 c -1.262951,15.33584 2.995577,27.4811 7.216868,27.66464 4.14969,0.18042 10.66104,-8.4365 8.05883,-27.78492 -0.0902,-0.67082 -4.90195,-0.61619 -7.45743,-0.6014 -2.55548,0.0148 -7.427355,0.0902 -7.818268,0.72168 z"
         id="path33565"
         sodipodi:nodetypes="csszc" />
      <path
         style="opacity:1;fill:#ff4600;fill-opacity:1;stroke:none;stroke-width:0.264583px;stroke-linecap:butt;stroke-linejoin:miter;stroke-opacity:1"
         d="m 104.43402,183.4286 c 1.26295,0.0301 3.27766,-5.563 3.21752,-7.63785 -0.0601,-2.07484 -0.96225,-4.90145 -3.09724,-4.84131 -2.13499,0.0601 -3.9392,2.58604 -3.81892,5.41265 0.12028,2.8266 2.55597,7.06651 3.69864,7.06651 z"
         id="path41833" />
    </g>
  </g>
  <g
     inkscape:groupmode="layer"
     id="layer3"
     inkscape:label="Face 2 ( Happy )"
     style="display:none"
     transform="translate(-14.923556,-69.746626)">
    <g
       id="g173438"
       transform="translate(1.1350427)">
      <g
         id="g173429"
         transform="translate(2.7664642,-8.5399546)">
        <circle
           style="opacity:1;fill:#000000;fill-opacity:1;stroke:none;stroke-width:2.96333;stroke-linecap:round;stroke-linejoin:round;stroke-miterlimit:4;stroke-dasharray:none;stroke-opacity:1;paint-order:fill markers stroke"
           id="path165132"
           cx="85.880669"
           cy="159.97379"
           r="9.3819218" />
        <circle
           style="fill:#f9f1e5;fill-opacity:1;stroke:none;stroke-width:2.96333;stroke-linecap:round;stroke-linejoin:round;stroke-miterlimit:4;stroke-dasharray:none;stroke-opacity:1;paint-order:fill markers stroke"
           id="path165132-0"
           cx="82.707817"
           cy="156.53255"
           r="3.2582104" />
      </g>
      <g
         id="g173425"
         transform="translate(6.1343336,-9.1434855)">
        <circle
           style="fill:#000000;fill-opacity:1;stroke:none;stroke-width:2.96333;stroke-linecap:round;stroke-linejoin:round;stroke-miterlimit:4;stroke-dasharray:none;stroke-opacity:1;paint-order:fill markers stroke"
           id="path165132-9"
           cx="112.94845"
           cy="160.57732"
           r="9.3819218" />
        <circle
           style="fill:#f9f1e5;fill-opacity:1;stroke:none;stroke-width:2.96333;stroke-linecap:round;stroke-linejoin:round;stroke-miterlimit:4;stroke-dasharray:none;stroke-opacity:1;paint-order:fill markers stroke"
           id="path165132-0-8"
           cx="109.7756"
           cy="157.13608"
           r="3.2582104" />
      </g>
      <path
         style="display:inline;fill:none;stroke:#000000;stroke-width:3.96875;stroke-linecap:round;stroke-linejoin:miter;stroke-miterlimit:4;stroke-dasharray:none;stroke-opacity:1"
         d="m 88.853584,167.69539 c 0,10.75902 10.358759,11.53428 15.011376,11.53428 6.45683,0 15.01138,-0.68999 15.01138,-11.53428"
         id="path172728"
         sodipodi:nodetypes="csc" />
    </g>
    <ellipse
       style="opacity:1;fill:#fbd9cd;fill-opacity:1;stroke:none;stroke-width:3.96875;stroke-linecap:round;stroke-linejoin:round;stroke-miterlimit:4;stroke-dasharray:none;stroke-opacity:1;paint-order:fill markers stroke"
       id="path177410"
       cx="77.902283"
       cy="168.94778"
       rx="7.8987055"
       ry="3.6084316" />
    <ellipse
       style="display:inline;fill:#fbd9cd;fill-opacity:1;stroke:none;stroke-width:3.96875;stroke-linecap:round;stroke-linejoin:round;stroke-miterlimit:4;stroke-dasharray:none;stroke-opacity:1;paint-order:fill markers stroke"
       id="path177410-4"
       cx="133.57603"
       cy="168.94778"
       rx="7.8987055"
       ry="3.6084316" />
  </g>
  <g
     inkscape:groupmode="layer"
     id="layer4"
     inkscape:label="Face 3 ( OMG )"
     style="display:inline"
     transform="translate(-14.923556,-69.746626)">
    <ellipse
       style="fill:#000000;fill-opacity:1;stroke:none;stroke-width:2.96333;stroke-linecap:round;stroke-linejoin:round;stroke-miterlimit:4;stroke-dasharray:none;stroke-opacity:1;paint-order:fill markers stroke"
       id="path165132-9-1"
       cx="104.33176"
       cy="168.17622"
       rx="9.3819218"
       ry="13.110634" />
    <ellipse
       style="display:inline;fill:#fbd9cd;fill-opacity:1;stroke:none;stroke-width:3.96875;stroke-linecap:round;stroke-linejoin:round;stroke-miterlimit:4;stroke-dasharray:none;stroke-opacity:1;paint-order:fill markers stroke"
       id="path177410-5"
       cx="82.96067"
       cy="171.61731"
       rx="7.8987055"
       ry="3.6084316" />
    <ellipse
       style="display:inline;fill:#fbd9cd;fill-opacity:1;stroke:none;stroke-width:3.96875;stroke-linecap:round;stroke-linejoin:round;stroke-miterlimit:4;stroke-dasharray:none;stroke-opacity:1;paint-order:fill markers stroke"
       id="path177410-4-4"
       cx="127.08745"
       cy="170.41449"
       rx="7.8987055"
       ry="3.6084316" />
    <ellipse
       style="opacity:1;fill:#ff4600;fill-opacity:1;stroke:none;stroke-width:3.96875;stroke-linecap:round;stroke-linejoin:round;stroke-miterlimit:4;stroke-dasharray:none;stroke-opacity:1;paint-order:fill markers stroke"
       id="path178458"
       cx="104.40395"
       cy="175.73062"
       rx="2.646183"
       ry="3.7287123" />
    <path
       style="fill:none;stroke:#000000;stroke-width:3.96875;stroke-linecap:round;stroke-linejoin:round;stroke-miterlimit:4;stroke-dasharray:none;stroke-opacity:1"
       d="m 128.26764,147.95355 -9.62248,6.01012 9.62248,6.01012"
       id="path184538"
       sodipodi:nodetypes="ccc" />
    <path
       style="fill:none;stroke:#000000;stroke-width:3.96875;stroke-linecap:round;stroke-linejoin:round;stroke-miterlimit:4;stroke-dasharray:none;stroke-opacity:1"
       d="m 80.39588,147.95355 9.62248,6.01012 -9.62248,6.01012"
       id="path184538-8"
       sodipodi:nodetypes="ccc" />
  </g>
</svg>
